<svg width="32" height="32" viewBox="0 0 32 32" fill="none" xmlns="http://www.w3.org/2000/svg">
<path d="M21.3333 30H24C24.6333 30 25.2167 29.625 25.5333 29.0063L31.7556 17.0063C32.0778 16.3875 32.0778 15.625 31.7611 15C31.4444 14.375 30.8611 14 30.2222 14H8C7.36667 14 6.78333 14.375 6.46667 14.9937L2.66667 22.3188V6C2.66667 5.45 3.06667 5 3.55556 5H10.0833C10.3167 5 10.5444 5.10625 10.7111 5.29375L12.1833 6.95C13.35 8.2625 14.9333 9 16.5833 9H23.1111C23.6 9 24 9.45 24 10V12H26.6667V10C26.6667 7.79375 25.0722 6 23.1111 6H16.5833C15.6389 6 14.7333 5.58125 14.0667 4.83125L12.5944 3.16875C11.9278 2.41875 11.0222 2 10.0778 2H3.55556C1.59444 2 0 3.79375 0 6V26C0 28.2062 1.59444 30 3.55556 30H4.87222H21.3333Z" fill="#FFD369"/>
</svg>
